<svg width="40" height="40" viewBox="0 0 40 40" fill="none" xmlns="http://www.w3.org/2000/svg">
<path d="M36 0C38.2091 5.15405e-07 40 1.79086 40 4V36C40 38.2091 38.2091 40 36 40H4C1.79086 40 3.22133e-08 38.2091 0 36V4C5.15413e-07 1.79086 1.79086 3.22128e-08 4 0H36ZM27.7666 4.92773C27.4727 4.92779 27.1786 4.98375 26.8848 5.0957C26.5908 5.19369 26.2549 5.30567 25.877 5.43164C25.513 5.54364 25.0577 5.59961 24.5117 5.59961H9.28711C8.74123 5.59961 8.27932 5.54359 7.90137 5.43164C7.53737 5.30564 7.20806 5.1937 6.91406 5.0957C6.63408 4.98372 6.34672 4.92773 6.05273 4.92773C5.56296 4.92778 5.19238 5.04729 4.94043 5.28516C4.70243 5.52316 4.50556 5.92893 4.35156 6.50293L2.9873 13.7061C2.91731 14.1261 2.9518 14.4694 3.0918 14.7354C3.2458 14.9873 3.49122 15.1478 3.82715 15.2178C4.16306 15.2877 4.45703 15.2672 4.70898 15.1553C4.96098 15.0293 5.17087 14.7839 5.33887 14.4199C6.17882 12.67 6.89997 11.3332 7.50195 10.4092C8.11785 9.47134 8.70571 8.82009 9.26562 8.45605C9.82562 8.09205 10.4423 7.91016 11.1143 7.91016H12.8994V31.3877C12.8994 31.6954 12.8152 31.9476 12.6475 32.1436C12.4795 32.3255 12.2201 32.473 11.8701 32.585L10.7988 32.8584C10.2251 33.0544 9.93858 33.425 9.93848 33.9707C9.93848 34.2786 10.0431 34.5306 10.2529 34.7266C10.4629 34.9086 10.7922 35 11.2402 35H22.5586C23.4406 35 23.8818 34.6567 23.8818 33.9707C23.8818 33.8734 23.8688 33.7825 23.8506 33.6963C24.154 33.9349 24.4776 34.1537 24.8223 34.3516C26.1263 35.0956 27.6664 35.4678 29.4424 35.4678C30.5384 35.4678 31.5225 35.312 32.3945 35C33.2744 34.696 34.0265 34.2883 34.6504 33.7764C35.2744 33.2564 35.7501 32.6799 36.0781 32.0479C36.4141 31.4159 36.5867 30.7759 36.5947 30.1279C36.5947 29.936 36.5546 29.7839 36.4746 29.6719C36.4026 29.5519 36.2784 29.4764 36.1025 29.4443C35.9266 29.4123 35.7623 29.4357 35.6104 29.5156C35.4664 29.5876 35.3301 29.7444 35.2021 29.9844C34.7622 30.8562 34.1902 31.5159 33.4863 31.9639C32.7903 32.4039 32.0179 32.624 31.1699 32.624C30.2182 32.6239 29.3782 32.3683 28.6504 31.8564C27.9224 31.3444 27.3543 30.572 26.9463 29.54C26.5383 28.5001 26.334 27.2042 26.334 25.6523C26.334 24.7003 26.4179 23.8477 26.5859 23.0957C26.7619 22.3359 27.0102 21.692 27.3301 21.1641C27.6581 20.6281 28.0546 20.2204 28.5186 19.9404C28.9825 19.6605 29.5022 19.5196 30.0781 19.5195C30.6301 19.5195 31.174 19.6325 31.71 19.8564C32.254 20.0724 32.7708 20.4558 33.2588 21.0078C33.7547 21.5517 34.21 22.316 34.626 23.2998C34.738 23.5638 34.8984 23.7438 35.1064 23.8398C35.3144 23.9358 35.5467 23.9517 35.8027 23.8877C36.0344 23.8317 36.2102 23.712 36.3301 23.5283C36.458 23.3444 36.486 23.1362 36.4141 22.9043L35.2021 18.5723C35.1141 18.2843 35.0059 18.08 34.8779 17.96C34.758 17.8401 34.6058 17.7803 34.4219 17.7803C34.1981 17.7804 34.0019 17.84 33.834 17.96C33.6741 18.0799 33.5144 18.2041 33.3545 18.332C33.2025 18.46 33.014 18.5244 32.79 18.5244C32.5981 18.5243 32.3619 18.4562 32.082 18.3203C31.8021 18.1844 31.4305 18.0518 30.9668 17.9238C30.5028 17.7958 29.8983 17.7324 29.1543 17.7324C27.9704 17.7324 26.8667 17.9564 25.8428 18.4043C24.8188 18.8523 23.926 19.4801 23.166 20.2881C22.4062 21.096 21.8146 22.044 21.3906 23.1318C21.1833 23.6638 21.0268 24.22 20.9209 24.7998V7.91016H22.7061C23.392 7.91017 24.0152 8.0846 24.5752 8.43457C25.1352 8.78457 25.7164 9.42919 26.3184 10.3672C26.9343 11.3052 27.6481 12.6561 28.46 14.4199C28.642 14.7839 28.8593 15.0293 29.1113 15.1553C29.3632 15.2671 29.6573 15.2877 29.9932 15.2178C30.3428 15.1478 30.5875 14.987 30.7275 14.7354C30.8815 14.4694 30.917 14.126 30.833 13.7061L29.4678 6.50293C29.3138 5.9292 29.1112 5.52317 28.8594 5.28516C28.6214 5.04716 28.2566 4.92773 27.7666 4.92773ZM20.9209 28.6436C21.0892 29.5873 21.3851 30.4582 21.8105 31.2559C22.1241 31.8371 22.4942 32.3625 22.9209 32.832L21.9502 32.585C21.6142 32.473 21.3549 32.3256 21.1729 32.1436C21.005 31.9476 20.9209 31.6955 20.9209 31.3877V28.6436Z" fill="black"/>
</svg>
